#!OML:ASF E:\Steps\Project 1\Capture day 1\Session 2\Subject.ASF
:FULLY-SPECIFIED
:DEGREES
215
root 8.91624 16.2853 30.3489 -146.832 -1.53203 -179.891
lowerback -25.1045 -1.41049 -3.27454
upperback -3.22867 -1.7182 0.0172876
thorax 10.4831 -1.25918 1.26782
lowerneck -1.83617 -0.96814 -3.9279
upperneck -11.3938 0.139776 7.86425
head -3.40957 0.300311 3.3195
rclavicle 1.04362e-014 7.95139e-016
rhumerus -37.7789 -14.9817 -76.7153
rradius 24.0677
rwrist 4.22981
rhand -6.40112 -49.3755
rfingers 7.12502
rthumb 19.4467 -78.423
lclavicle 1.04362e-014 7.95139e-016
lhumerus -32.4549 -10.9288 82.1682
lradius 24.3595
lwrist -2.86916
lhand -20.9225 -18.5412
lfingers 7.12502
lthumb 5.44921 11.3687
rfemur -33.908 8.45042 18.1865
rtibia 15.319
rfoot -25.5784 -13.3597
rtoes -28.9886
lfemur -36.0292 -10.9933 -14.5404
ltibia 17.8947
lfoot -14.868 5.49561
ltoes -35.7101
216
root 8.93691 16.2858 30.3425 -146.412 -1.1377 -180.168
lowerback -25.123 -1.42065 -3.87689
upperback -3.19086 -1.55632 -0.0573872
thorax 10.5375 -1.20696 1.5836
lowerneck -1.8857 -1.03624 -3.90329
upperneck -11.6591 0.0920447 7.84319
head -3.48902 0.288087 3.31279
rclavicle -2.98177e-016 -1.07344e-014
rhumerus -38.1716 -15.334 -75.9356
rradius 23.714
rwrist 4.3985
rhand -5.44176 -48.2725
rfingers 7.12502
rthumb 20.3689 -77.2243
lclavicle -2.98177e-016 -1.07344e-014
lhumerus -32.7192 -11.4259 81.8581
lradius 24.5108
lwrist -2.52848
lhand -21.1774 -17.9752
lfingers 7.12502
lthumb 5.20305 11.9409
rfemur -34.7904 9.28439 17.3719
rtibia 15.967
rfoot -25.8986 -13.8582
rtoes -27.9466
lfemur -36.6428 -10.9808 -14.6753
ltibia 18.2232
lfoot -15.0391 5.86547
ltoes -36.793
217
root 8.9445 16.2812 30.3447 -146.161 -1.17227 -180.092
lowerback -24.7932 -1.38961 -3.77205
upperback -3.14512 -1.53716 -0.0509099
thorax 10.4122 -1.1841 1.54478
lowerneck -2.02761 -1.06578 -3.79332
upperneck -11.792 0.0775816 7.75724
head -3.50589 0.290026 3.26234
rclavicle 1.19271e-015 -1.47101e-014
rhumerus -38.5165 -15.6297 -75.2421
rradius 23.304
rwrist 4.79563
rhand -4.78459 -46.8286
rfingers 7.12502
rthumb 21.0004 -75.7117
lclavicle 1.19271e-015 -1.47101e-014
lhumerus -33.1412 -11.9297 81.4805
lradius 24.8799
lwrist -2.24584
lhand -21.8743 -17.2053
lfingers 7.12502
lthumb 4.53012 12.7262
rfemur -35.2407 9.54747 17.3498
rtibia 16.2552
rfoot -26.0269 -13.988
rtoes -27.3934
lfemur -37.2185 -10.9603 -14.466
ltibia 18.778
lfoot -15.2151 6.05767
ltoes -37.0744
218
root 8.94939 16.2733 30.3453 -145.853 -1.19901 -180.043
lowerback -24.5056 -1.36071 -3.69868
upperback -3.11268 -1.51514 -0.0348883
thorax 10.2946 -1.16302 1.53455
lowerneck -2.08981 -1.14869 -3.68249
upperneck -12.0392 0.00804154 7.71829
head -3.57482 0.264246 3.23284
rclavicle -2.98177e-015 8.74653e-015
rhumerus -38.8543 -15.9416 -74.5309
rradius 22.8812
rwrist 5.46697
rhand -4.68666 -45.1984
rfingers 7.12502
rthumb 21.0944 -74.071
lclavicle -2.98177e-015 8.74653e-015
lhumerus -33.5768 -12.2611 81.069
lradius 25.3217
lwrist -2.14479
lhand -20.8436 -16.8474
lfingers 7.12502
lthumb 5.52535 13.0606
rfemur -35.6978 9.79108 17.3077
rtibia 16.4588
rfoot -26.0143 -14.3169
rtoes -27.9306
lfemur -37.8604 -10.9387 -14.2988
ltibia 19.3549
lfoot -15.4695 6.11218
ltoes -37.0554
219
root 8.95355 16.2661 30.3454 -145.494 -1.25502 -180.046
lowerback -24.2222 -1.32883 -3.70313
upperback -3.0967 -1.47121 -0.0194298
thorax 10.1603 -1.13557 1.57526
lowerneck -2.15679 -1.24977 -3.62255
upperneck -12.3831 -0.0700775 7.68014
head -3.6771 0.240595 3.21544
rclavicle -9.93923e-017 7.15625e-015
rhumerus -39.3106 -16.1366 -73.8066
rradius 22.584
rwrist 5.94634
rhand -4.5807 -43.5994
rfingers 7.12502
rthumb 21.1962 -72.4605
lclavicle -9.93923e-017 7.15625e-015
lhumerus -33.929 -12.5064 80.6774
lradius 25.6002
lwrist -1.97074
lhand -20.2061 -16.539
lfingers 7.12502
lthumb 6.1408 13.352
rfemur -36.2015 10.0186 17.1895
rtibia 16.7042
rfoot -26.1265 -14.6936
rtoes -28.6209
lfemur -38.5401 -11.1151 -14.1043
ltibia 19.9104
lfoot -15.7867 6.23442
ltoes -36.846
220
root 8.96177 16.2629 30.3449 -145.203 -1.32375 -180.195
lowerback -23.8267 -1.38258 -3.86663
upperback -3.06025 -1.49436 -0.029714
thorax 9.99579 -1.14261 1.65876
lowerneck -2.27912 -1.31207 -3.52904
upperneck -12.6654 -0.106773 7.58666
head -3.74971 0.237848 3.16928
rclavicle 8.05078e-015 9.93923e-015
rhumerus -39.8785 -15.9518 -73.2724
rradius 22.5514
rwrist 6.00263
rhand -4.32793 -42.4924
rfingers 7.12502
rthumb 21.439 -71.3262
lclavicle 8.05078e-015 9.93923e-015
lhumerus -34.3933 -12.8076 80.2808
lradius 25.8869
lwrist -1.6287
lhand -20.2202 -16.3551
lfingers 7.12502
lthumb 6.12723 13.5363
rfemur -36.6257 10.1396 16.9272
rtibia 16.9378
rfoot -26.4747 -14.8837
rtoes -28.4664
lfemur -39.0663 -11.7601 -13.8662
ltibia 20.2782
lfoot -16.0861 6.74166
ltoes -36.7232
221
root 8.96986 16.2612 30.3433 -144.999 -1.50321 -180.345
lowerback -23.3253 -1.47883 -3.95962
upperback -2.9804 -1.58828 -0.0123344
thorax 9.82721 -1.17646 1.71249
lowerneck -2.36805 -1.37996 -3.46632
upperneck -12.8982 -0.158727 7.53358
head -3.81105 0.224292 3.1431
rclavicle 1.17283e-014 2.10712e-014
rhumerus -40.298 -16.0866 -72.5959
rradius 22.3418
rwrist 6.46936
rhand -4.27308 -41.5114
rfingers 7.12502
rthumb 21.4917 -70.3392
lclavicle 1.17283e-014 2.10712e-014
lhumerus -34.7719 -12.9813 79.8568
lradius 26.0732
lwrist -1.38736
lhand -20.3594 -16.2205
lfingers 7.12502
lthumb 5.99288 13.6747
rfemur -36.9818 10.6143 16.5502
rtibia 17.2037
rfoot -26.8825 -15.3836
rtoes -27.5339
lfemur -39.5959 -11.7306 -13.8987
ltibia 20.8381
lfoot -16.3914 6.46543
ltoes -36.4327
